<svg width="84" height="50" viewBox="0 0 84 50" fill="none" xmlns="http://www.w3.org/2000/svg">
<path d="M6.52954 19.2113L10.0339 16.9258C10.091 16.8886 10.1587 16.871 10.2268 16.8759L25.4286 17.9617" stroke="#104580" stroke-width="1.5" stroke-linecap="round"/>
<path d="M1 25.5523L5.29606 26.6263C5.34676 26.639 5.39984 26.6387 5.45043 26.6256L28.8019 20.5542" stroke="#104580" stroke-width="1.5" stroke-linecap="round"/>
<path d="M5.37329 27.6457V31.5504" stroke="#104580" stroke-width="1.5" stroke-linecap="round"/>
<path d="M14.5885 25.1466L12.7379 34.0911C12.7226 34.165 12.6811 34.2308 12.621 34.2765L8.80945 37.1733" stroke="#104580" stroke-width="1.5" stroke-linecap="round"/>
<path d="M12.7142 34.2056L15.3695 37.798" stroke="#104580" stroke-width="1.5" stroke-linecap="round"/>
<path d="M30.6762 22.4913L23.5809 28.9696C23.5233 29.0222 23.4482 29.0513 23.3703 29.0513H19.2743" stroke="#104580" stroke-width="1.5" stroke-linecap="round"/>
<path d="M23.4914 29.0512L22.7104 33.1122" stroke="#104580" stroke-width="1.5" stroke-linecap="round"/>
<path d="M22.8667 36.5484H26.7527C26.8614 36.5484 26.9623 36.4919 27.019 36.3992L34.581 24.0532" stroke="#104580" stroke-width="1.5" stroke-linecap="round"/>
<path d="M26.9276 36.5485V40.4532" stroke="#104580" stroke-width="1.5" stroke-linecap="round"/>
<path d="M38.4857 24.8342L35.0789 38.7713C35.06 38.8484 35.0125 38.9154 34.9461 38.9588L31.4572 41.2342" stroke="#104580" stroke-width="1.5" stroke-linecap="round"/>
<path d="M35.0496 38.8913L36.4553 42.4837" stroke="#104580" stroke-width="1.5" stroke-linecap="round"/>
<path d="M77.1581 19.2113L73.6537 16.9258C73.5966 16.8886 73.5289 16.871 73.4608 16.8759L58.259 17.9617" stroke="#104580" stroke-width="1.5" stroke-linecap="round"/>
<path d="M83 25.5523L78.7039 26.6263C78.6532 26.639 78.6002 26.6387 78.5496 26.6256L55.1981 20.5542" stroke="#104580" stroke-width="1.5" stroke-linecap="round"/>
<path d="M78.6267 27.6457V31.5504" stroke="#104580" stroke-width="1.5" stroke-linecap="round"/>
<path d="M69.4115 25.1466L71.2621 34.0911C71.2774 34.165 71.3189 34.2308 71.379 34.2765L75.1906 37.1733" stroke="#104580" stroke-width="1.5" stroke-linecap="round"/>
<path d="M71.2858 34.2056L68.6305 37.798" stroke="#104580" stroke-width="1.5" stroke-linecap="round"/>
<path d="M53.3238 22.4913L60.4191 28.9696C60.4767 29.0222 60.5518 29.0513 60.6297 29.0513H64.7257" stroke="#104580" stroke-width="1.5" stroke-linecap="round"/>
<path d="M60.5086 29.0512L61.2896 33.1122" stroke="#104580" stroke-width="1.5" stroke-linecap="round"/>
<path d="M61.1333 36.5484H57.2473C57.1386 36.5484 57.0377 36.4919 56.981 36.3992L49.419 24.0532" stroke="#104580" stroke-width="1.5" stroke-linecap="round"/>
<path d="M57.0724 36.5485V40.4532" stroke="#104580" stroke-width="1.5" stroke-linecap="round"/>
<path d="M45.5143 24.8342L48.9211 38.7713C48.94 38.8484 48.9875 38.9154 49.0539 38.9588L52.5428 41.2342" stroke="#104580" stroke-width="1.5" stroke-linecap="round"/>
<path d="M48.9504 38.8913L47.5447 42.4837" stroke="#104580" stroke-width="1.5" stroke-linecap="round"/>
<path d="M41.7657 24.9905V46.0844C41.7657 46.178 41.7236 46.2668 41.6511 46.3261L38.3295 49.0438" stroke="#104580" stroke-width="1.5" stroke-linecap="round"/>
<path d="M41.7656 46.2323L45.0456 49.1999" stroke="#104580" stroke-width="1.5" stroke-linecap="round"/>
<path d="M60.3833 12.4952C60.3833 15.6111 58.4569 18.5291 55.1409 20.7035C51.8313 22.8737 47.2151 24.2405 42.0781 24.2405C36.9411 24.2405 32.3248 22.8737 29.0152 20.7035C25.6993 18.5291 23.7728 15.6111 23.7728 12.4952C23.7728 9.3794 25.6993 6.46136 29.0152 4.28695C32.3248 2.11676 36.9411 0.75 42.0781 0.75C47.2151 0.75 51.8313 2.11676 55.1409 4.28695C58.4569 6.46136 60.3833 9.3794 60.3833 12.4952Z" stroke="#104580" stroke-width="1.5"/>
<path d="M33.5 7.19995C33.5 7.65451 33.3612 8.04679 33.1607 8.31416C32.9602 8.58138 32.7215 8.69995 32.5 8.69995C32.2785 8.69995 32.0398 8.58138 31.8393 8.31416C31.6388 8.04679 31.5 7.65451 31.5 7.19995C31.5 6.74539 31.6388 6.35311 31.8393 6.08574C32.0398 5.81852 32.2785 5.69995 32.5 5.69995C32.7215 5.69995 32.9602 5.81852 33.1607 6.08574C33.3612 6.35311 33.5 6.74539 33.5 7.19995Z" stroke="#104580"/>
<path d="M30.5 13.2C30.5 13.6545 30.3612 14.0468 30.1607 14.3142C29.9602 14.5814 29.7215 14.7 29.5 14.7C29.2785 14.7 29.0398 14.5814 28.8393 14.3142C28.6388 14.0468 28.5 13.6545 28.5 13.2C28.5 12.7454 28.6388 12.3531 28.8393 12.0857C29.0398 11.8185 29.2785 11.7 29.5 11.7C29.7215 11.7 29.9602 11.8185 30.1607 12.0857C30.3612 12.3531 30.5 12.7454 30.5 13.2Z" stroke="#104580"/>
<path d="M36.5 12.2C36.5 12.6545 36.3612 13.0468 36.1607 13.3142C35.9602 13.5814 35.7215 13.7 35.5 13.7C35.2785 13.7 35.0398 13.5814 34.8393 13.3142C34.6388 13.0468 34.5 12.6545 34.5 12.2C34.5 11.7454 34.6388 11.3531 34.8393 11.0857C35.0398 10.8185 35.2785 10.7 35.5 10.7C35.7215 10.7 35.9602 10.8185 36.1607 11.0857C36.3612 11.3531 36.5 11.7454 36.5 12.2Z" stroke="#104580"/>
<path d="M34.5 18.2C34.5 18.6545 34.3612 19.0468 34.1607 19.3142C33.9602 19.5814 33.7215 19.7 33.5 19.7C33.2785 19.7 33.0398 19.5814 32.8393 19.3142C32.6388 19.0468 32.5 18.6545 32.5 18.2C32.5 17.7454 32.6388 17.3531 32.8393 17.0857C33.0398 16.8185 33.2785 16.7 33.5 16.7C33.7215 16.7 33.9602 16.8185 34.1607 17.0857C34.3612 17.3531 34.5 17.7454 34.5 18.2Z" stroke="#104580"/>
<path d="M41.5 19.2C41.5 19.6545 41.3612 20.0468 41.1607 20.3142C40.9602 20.5814 40.7215 20.7 40.5 20.7C40.2785 20.7 40.0398 20.5814 39.8393 20.3142C39.6388 20.0468 39.5 19.6545 39.5 19.2C39.5 18.7454 39.6388 18.3531 39.8393 18.0857C40.0398 17.8185 40.2785 17.7 40.5 17.7C40.7215 17.7 40.9602 17.8185 41.1607 18.0857C41.3612 18.3531 41.5 18.7454 41.5 19.2Z" stroke="#104580"/>
<path d="M41.5 5.19995C41.5 5.65451 41.3612 6.04679 41.1607 6.31416C40.9602 6.58138 40.7215 6.69995 40.5 6.69995C40.2785 6.69995 40.0398 6.58138 39.8393 6.31416C39.6388 6.04679 39.5 5.65451 39.5 5.19995C39.5 4.74539 39.6388 4.35311 39.8393 4.08574C40.0398 3.81852 40.2785 3.69995 40.5 3.69995C40.7215 3.69995 40.9602 3.81852 41.1607 4.08574C41.3612 4.35311 41.5 4.74539 41.5 5.19995Z" stroke="#104580"/>
<path d="M47.5 7.19995C47.5 7.65451 47.3612 8.04679 47.1607 8.31416C46.9602 8.58138 46.7215 8.69995 46.5 8.69995C46.2785 8.69995 46.0398 8.58138 45.8393 8.31416C45.6388 8.04679 45.5 7.65451 45.5 7.19995C45.5 6.74539 45.6388 6.35311 45.8393 6.08574C46.0398 5.81852 46.2785 5.69995 46.5 5.69995C46.7215 5.69995 46.9602 5.81852 47.1607 6.08574C47.3612 6.35311 47.5 6.74539 47.5 7.19995Z" stroke="#104580"/>
<path d="M44.5 13.2C44.5 13.6545 44.3612 14.0468 44.1607 14.3142C43.9602 14.5814 43.7215 14.7 43.5 14.7C43.2785 14.7 43.0398 14.5814 42.8393 14.3142C42.6388 14.0468 42.5 13.6545 42.5 13.2C42.5 12.7454 42.6388 12.3531 42.8393 12.0857C43.0398 11.8185 43.2785 11.7 43.5 11.7C43.7215 11.7 43.9602 11.8185 44.1607 12.0857C44.3612 12.3531 44.5 12.7454 44.5 13.2Z" stroke="#104580"/>
<path d="M50.5 19.2C50.5 19.6545 50.3612 20.0468 50.1607 20.3142C49.9602 20.5814 49.7215 20.7 49.5 20.7C49.2785 20.7 49.0398 20.5814 48.8393 20.3142C48.6388 20.0468 48.5 19.6545 48.5 19.2C48.5 18.7454 48.6388 18.3531 48.8393 18.0857C49.0398 17.8185 49.2785 17.7 49.5 17.7C49.7215 17.7 49.9602 17.8185 50.1607 18.0857C50.3612 18.3531 50.5 18.7454 50.5 19.2Z" stroke="#104580"/>
<path d="M52.5 13.2C52.5 13.6545 52.3612 14.0468 52.1607 14.3142C51.9602 14.5814 51.7215 14.7 51.5 14.7C51.2785 14.7 51.0398 14.5814 50.8393 14.3142C50.6388 14.0468 50.5 13.6545 50.5 13.2C50.5 12.7454 50.6388 12.3531 50.8393 12.0857C51.0398 11.8185 51.2785 11.7 51.5 11.7C51.7215 11.7 51.9602 11.8185 52.1607 12.0857C52.3612 12.3531 52.5 12.7454 52.5 13.2Z" stroke="#104580"/>
<path d="M54.5 8.19995C54.5 8.65451 54.3612 9.04679 54.1607 9.31416C53.9602 9.58138 53.7215 9.69995 53.5 9.69995C53.2785 9.69995 53.0398 9.58138 52.8393 9.31416C52.6388 9.04679 52.5 8.65451 52.5 8.19995C52.5 7.74539 52.6388 7.35311 52.8393 7.08574C53.0398 6.81852 53.2785 6.69995 53.5 6.69995C53.7215 6.69995 53.9602 6.81852 54.1607 7.08574C54.3612 7.35311 54.5 7.74539 54.5 8.19995Z" stroke="#104580"/>
<path d="M57.5 13.2C57.5 13.6545 57.3612 14.0468 57.1607 14.3142C56.9602 14.5814 56.7215 14.7 56.5 14.7C56.2785 14.7 56.0398 14.5814 55.8393 14.3142C55.6388 14.0468 55.5 13.6545 55.5 13.2C55.5 12.7454 55.6388 12.3531 55.8393 12.0857C56.0398 11.8185 56.2785 11.7 56.5 11.7C56.7215 11.7 56.9602 11.8185 57.1607 12.0857C57.3612 12.3531 57.5 12.7454 57.5 13.2Z" stroke="#104580"/>
</svg>
