<svg width="53" height="53" viewBox="0 0 53 53" fill="none" xmlns="http://www.w3.org/2000/svg">
<path d="M17.834 14.1973L12.2366 17.3742C12.0084 17.5037 12.007 17.8322 12.2341 17.9637L17.9962 21.2997C18.1068 21.3636 18.2438 21.3602 18.351 21.2909L23.4943 17.9629C23.7054 17.8263 23.7002 17.5157 23.4846 17.3863L18.1765 14.2014C18.0714 14.1384 17.9406 14.1368 17.834 14.1973Z" stroke="#104580" stroke-width="1.47222" stroke-linecap="round"/>
<path d="M24.9704 19.8664L19.3504 23.5118C19.2538 23.5744 19.1956 23.6817 19.1956 23.7968V30.1441C19.1956 30.4088 19.4848 30.5718 19.7112 30.4347L25.4824 26.9417C25.5865 26.8787 25.6489 26.7648 25.6461 26.6431L25.495 20.1435C25.4888 19.8777 25.1935 19.7217 24.9704 19.8664Z" stroke="#104580" stroke-width="1.47222" stroke-linecap="round"/>
<path d="M10.7019 26.8191V20.4808C10.7019 20.2155 10.9924 20.0525 11.2188 20.1909L16.6547 23.5128C16.7557 23.5745 16.8173 23.6844 16.8173 23.8027V30.141C16.8173 30.4063 16.5268 30.5693 16.3004 30.4309L10.8645 27.109C10.7635 27.0473 10.7019 26.9374 10.7019 26.8191Z" stroke="#104580" stroke-width="1.47222" stroke-linecap="round"/>
<path d="M28.4134 8.06331C27.0236 9.41035 24.8867 12.1767 23.589 13.9407C23.335 14.2859 23.4664 14.7744 23.8565 14.9517L26.7898 16.285C26.8231 16.3002 26.8552 16.3178 26.8852 16.3388C27.2214 16.5744 27.4985 16.8956 27.6367 17.0828C27.6726 17.1314 27.6996 17.1859 27.7145 17.2444C27.8294 17.6941 27.859 18.6023 27.859 19.0257V26.5001V26.67C27.859 27.7765 27.5809 28.4103 27.4022 28.6468C27.3696 28.6899 27.3276 28.7217 27.2816 28.7498C24.9367 30.1797 20.2788 33.0258 19.8751 33.295C19.4674 33.5668 18.686 33.6347 18.3462 33.6347H17.6573C17.2857 33.6347 16.9814 33.9375 16.9916 34.3089C17.2449 43.5166 25.4103 45.5218 29.5577 45.3559C32.5588 45.3559 38.9686 43.0116 40.5994 33.6347C42.1805 24.5434 33.9892 13.1208 29.3086 8.0985C29.0674 7.83965 28.6675 7.81706 28.4134 8.06331Z" stroke="#104580" stroke-width="1.47222" stroke-linecap="round"/>
<path d="M36.0128 27.8591C36.6923 29.8409 37.3378 34.654 34.4839 38.0514C31.6301 41.4488 27.8589 41.1657 26.3301 40.5995" stroke="#104580" stroke-width="1.47222" stroke-linecap="round"/>
<circle cx="26.5" cy="26.5" r="25.7639" stroke="#104580" stroke-width="1.47222"/>
</svg>
