<svg width="58" height="50" viewBox="0 0 58 50" fill="none" xmlns="http://www.w3.org/2000/svg">
<path d="M8.70231 29.2391L8.13778 28.6746C-1.34742 19.641 1.17444 11.3603 3.62102 8.34913C13.9355 -4.20764 24.7324 2.97541 28.9382 8.23611C28.9846 8.29409 29.0697 8.29329 29.1147 8.23432C32.5697 3.71343 41.6418 -3.21679 51.047 4.39696C60.5322 12.0755 56.1284 21.8994 52.7408 25.8516L29.1076 48.9221C29.0634 48.9653 28.9926 48.9648 28.9489 48.9211L23.3818 43.354M8.70231 29.2391L14.8141 19.7937C14.8595 19.7234 14.9631 19.7254 15.0059 19.7973L28.9262 43.1834C28.971 43.2586 28.9168 43.354 28.8292 43.354H23.3818M8.70231 29.2391L0.892105 43.1859C0.849954 43.2612 0.904359 43.354 0.990628 43.354H23.3818" stroke="#104580" stroke-width="1.69379"/>
<path d="M14.9128 28.6746V34.3205" stroke="#104580" stroke-width="1.69379" stroke-linecap="round"/>
<path d="M22.2526 23.0286H25.5797C25.6175 23.0286 25.6527 23.0475 25.6737 23.0789L27.7906 26.2543C27.8387 26.3264 27.9468 26.3197 27.9855 26.2421L31.1736 19.8659C31.2172 19.7788 31.3433 19.784 31.3795 19.8745L35.6846 30.6372C35.7241 30.736 35.8657 30.7303 35.8973 30.6287L40.7898 14.8638C40.8213 14.7623 40.963 14.7566 41.0025 14.8554L44.2434 22.9576C44.2605 23.0005 44.3021 23.0286 44.3482 23.0286H48.7886" stroke="#104580" stroke-width="1.69379" stroke-linecap="round"/>
<circle cx="14.9128" cy="38.2727" r="0.564595" fill="white" stroke="#104580" stroke-width="1.12919"/>
</svg>
