<svg width="65" height="48" viewBox="0 0 65 48" fill="none" xmlns="http://www.w3.org/2000/svg">
<path d="M53.8166 22.5095C53.9037 15.0957 51.3622 0.418067 40.5 1.01783C38.15 1.10114 33.3977 2.66721 33.1889 8.26503C32.98 13.8629 36.2351 15.0957 37.8889 15.0124" stroke="#104580" stroke-width="1.5" stroke-linecap="round"/>
<path d="M38.411 24.5086C36.5833 25.5082 32.9799 28.4071 33.1888 32.0057C33.3977 35.6043 36.7573 38.0033 38.411 38.753" stroke="#104580" stroke-width="1.5" stroke-linecap="round"/>
<path d="M41.2832 13.5129C39.7165 13.6795 36.5309 15.1123 36.3221 19.5106C36.1132 23.9089 39.7165 25.0085 41.5443 25.0085" stroke="#104580" stroke-width="1.5" stroke-linecap="round"/>
<path d="M29.5333 12.2634C29.4489 14.3649 30.5608 18.6937 35.5882 19.6795C35.6425 19.6902 35.6401 19.7978 35.5854 19.8056C33.5692 20.0923 30.2483 21.711 30.0555 26.5079C29.8467 31.7059 29.9685 42.3351 30.0555 46.9999" stroke="#104580" stroke-width="1.5" stroke-linecap="round"/>
<path d="M38.461 42.68L51.4285 24.0637C51.4469 24.0373 51.486 24.0377 51.5038 24.0644L63.9526 42.6807C63.9729 42.711 63.9511 42.7516 63.9147 42.7516H38.4985C38.4616 42.7516 38.44 42.7102 38.461 42.68Z" stroke="#104580" stroke-width="1.5" stroke-linecap="round"/>
<path d="M51.2055 30.2565V36.0042" stroke="#104580" stroke-width="1.5" stroke-linecap="round"/>
<path d="M16.7388 15.7621C19.9592 13.0132 24.5722 6.51569 17.2611 2.51724C9.94994 -1.4812 4.81476 4.18326 3.16105 7.5153C1.42031 11.7637 -0.912283 22.5595 3.68327 31.7559C8.27883 40.9523 14.6499 39.5862 17.2611 37.7536C20.1333 35.671 23.7888 29.7567 16.4777 23.759" stroke="#104580" stroke-width="1.5" stroke-linecap="round"/>
<path d="M12.8221 13.5129C14.4758 13.8461 17.7833 15.5122 17.7833 19.5106C17.7833 23.5091 14.4758 24.8419 12.8221 25.0085" stroke="#104580" stroke-width="1.5" stroke-linecap="round"/>
<path d="M24.8333 12.7632C24.7479 14.5613 23.2717 18.4604 18.0863 19.9285C18.0358 19.9429 18.0406 20.0254 18.0929 20.0299C20.3506 20.2249 24.3728 21.6778 24.5722 26.258C24.7811 31.0561 24.8333 42.0852 24.8333 47" stroke="#104580" stroke-width="1.5" stroke-linecap="round"/>
<mask id="path-10-inside-1_362_183" fill="white">
<ellipse cx="51.2057" cy="38.5033" rx="0.783334" ry="0.749709"/>
</mask>
<ellipse cx="51.2057" cy="38.5033" rx="0.783334" ry="0.749709" fill="#104580"/>
<path d="M50.489 38.5032C50.489 38.0275 50.8726 37.753 51.2057 37.753V40.753C52.404 40.753 53.489 39.8071 53.489 38.5032H50.489ZM51.2057 37.753C51.5388 37.753 51.9224 38.0275 51.9224 38.5032H48.9224C48.9224 39.8071 50.0073 40.753 51.2057 40.753V37.753ZM51.9224 38.5032C51.9224 38.979 51.5388 39.2535 51.2057 39.2535V36.2535C50.0073 36.2535 48.9224 37.1994 48.9224 38.5032H51.9224ZM51.2057 39.2535C50.8726 39.2535 50.489 38.979 50.489 38.5032H53.489C53.489 37.1994 52.404 36.2535 51.2057 36.2535V39.2535Z" fill="#104580" mask="url(#path-10-inside-1_362_183)"/>
</svg>
