<svg width="72" height="52" viewBox="0 0 72 52" fill="none" xmlns="http://www.w3.org/2000/svg">
<path d="M43.0553 4.64867C40.1647 3.71231 32.0876 1.69302 22.9031 1.10677C13.7186 0.520528 9.30545 2.49096 8.24695 3.54946C7.22916 4.48583 4.63177 7.5799 2.3845 12.4653C0.137225 17.3507 1.12244 25.1673 1.89596 28.4649C2.83233 31.7218 5.58443 39.628 9.1019 45.1973C12.6194 50.7666 16.1043 51.2633 17.407 50.8155C17.977 50.6933 19.5078 49.9361 21.0711 47.8843C22.6344 45.8324 23.4323 43.9352 23.6359 43.2431" stroke="#104580" stroke-width="1.5" stroke-linecap="round"/>
<path d="M43.0554 4.64868C45.4912 9.19543 48.9956 20.2677 43.5903 28.2745C43.5607 28.3184 43.5176 28.3503 43.4667 28.3649C41.4431 28.9473 37.354 30.2837 36.5823 31.1518" stroke="#104580" stroke-width="1.5" stroke-linecap="round"/>
<path d="M43.1774 4.77079C49.8948 3.63087 64.5265 1.5953 69.3141 2.57237C74.1018 3.54945 67.5635 13.7273 63.6959 18.6941C62.841 19.6712 60.3983 21.894 57.4671 22.9688C54.5359 24.0436 47.045 26.9993 43.6659 28.3427" stroke="#104580" stroke-width="1.5" stroke-linecap="round"/>
<path d="M8.36914 15.2744C9.71262 11.3254 15.0133 4.209 25.468 7.33564" stroke="#104580" stroke-width="1.5" stroke-linecap="round"/>
<path d="M69.192 10.1447H61.2533" stroke="#104580" stroke-width="1.5" stroke-linecap="round"/>
<path d="M46.8723 29.4288L39.8315 32.2679C39.6807 32.3287 39.6413 32.5242 39.7539 32.6415C42.4582 35.4569 42.6889 37.689 42.6889 39.1135C42.6889 40.286 43.1775 40.6606 43.4217 40.7013C43.8288 40.7827 45.0339 40.8967 46.5972 40.7013C48.1605 40.5059 48.6328 39.9685 48.6735 39.7242C49.0496 35.8691 47.8724 31.4787 47.1664 29.557C47.1228 29.4382 46.9897 29.3815 46.8723 29.4288Z" stroke="#104580" stroke-width="1.5" stroke-linecap="round"/>
<circle cx="25.4679" cy="31.6403" r="9.26502" stroke="#104580" stroke-width="1.5"/>
<path d="M25.7733 26.7705L25.7733 32.5133" stroke="#104580" stroke-width="1.5" stroke-linecap="round"/>
<circle cx="25.7692" cy="36.4628" r="0.75" fill="#104580" stroke="#104580" stroke-width="0.653846"/>
</svg>
