<svg width="45" height="45" viewBox="0 0 45 45" fill="none" xmlns="http://www.w3.org/2000/svg">
<path d="M24.646 37.5353C26.5324 42.634 32.2585 45.2613 37.4357 43.4035C42.613 41.5457 45.2808 35.9063 43.3944 30.8076L39.071 19.2373M24.646 37.5353L3.69125 21.62M24.646 37.5353L20.3278 25.8637M20.3278 25.8637L39.071 19.2373M20.3278 25.8637L16.0096 14.1922C14.1232 9.09349 16.7909 3.45415 21.9681 1.59636C27.1453 -0.261436 32.8716 2.36581 34.758 7.46452L39.071 19.2373M25.7024 39.6016C24.4655 40.8781 23.0582 41.9143 21.4327 42.6563C19.7207 43.4405 17.8687 43.8849 15.9823 43.9639C14.0959 44.0429 12.2121 43.755 10.4387 43.1168C8.66533 42.4785 7.03706 41.5023 5.64689 40.244C4.25673 38.9857 3.13181 37.4699 2.33672 35.7833C0.731692 32.3793 0.56532 28.4869 1.87405 24.962C3.18278 21.4372 5.85943 18.5686 9.31549 16.9871C11.3811 16.0405 13.6455 15.5903 15.9222 15.6736L16.5115 15.6736" stroke="#104580" stroke-width="1.5" stroke-linecap="round" stroke-linejoin="round"/>
</svg>
