<svg width="44" height="39" viewBox="0 0 44 39" fill="none" xmlns="http://www.w3.org/2000/svg">
<path d="M39.7502 17.7739C39.8564 17.5397 39.9501 17.2988 40.0376 17.0853C40.4202 16.0514 40.6623 14.9609 40.7561 13.8491C40.9446 11.5493 40.4946 9.24077 39.4658 7.22913C38.437 5.21749 36.8779 3.59769 34.995 2.58435C32.5323 1.26146 29.6936 1.07032 27.103 2.05289C24.5124 3.03545 22.382 5.1113 21.1798 7.82422C21.1049 8.00324 21.0298 8.1961 20.9611 8.40267C20.8924 8.1961 20.8173 8.00324 20.7423 7.82422C19.5401 5.1113 17.4097 3.03545 14.8191 2.05289C12.2285 1.07032 9.38986 1.26146 6.92713 2.58435C4.46566 3.90773 2.58195 6.25425 1.69025 9.10786C0.798539 11.9615 0.971778 15.0885 2.172 17.8013C4.67137 23.4544 20.9548 37.3838 20.9548 37.3838C20.9548 37.3838 32.1646 27.7923 37.407 21.2992M6.65836 16.8787H13.163L15.6561 21.7743L19.5614 11.9831L21.1235 16.8787H24.7038L27.2032 21.7743L31.1022 11.9831L32.6706 18.1732L42.8306 17.9116" stroke="#104580" stroke-width="1.64721" stroke-linecap="round" stroke-linejoin="round"/>
</svg>
