<svg width="15" height="14" viewBox="0 0 15 14" fill="none" xmlns="http://www.w3.org/2000/svg">
<path d="M7.33438 0.501545L0.73791 7.18332C0.701696 7.22 0.727681 7.28217 0.779229 7.28217H2.7015C2.73356 7.28217 2.75956 7.30816 2.75956 7.34023V12.8851C2.75956 12.9172 2.78555 12.9431 2.81762 12.9431H5.74972C5.78178 12.9431 5.80778 12.9172 5.80778 12.8851V8.53049C5.80778 8.49842 5.83377 8.47243 5.86584 8.47243H8.82697C8.85903 8.47243 8.88503 8.49842 8.88503 8.53049V12.8851C8.88503 12.9172 8.91102 12.9431 8.94309 12.9431H11.9623C11.9943 12.9431 12.0203 12.9172 12.0203 12.8851V7.34023C12.0203 7.30816 12.0463 7.28217 12.0784 7.28217H13.9513C14.0015 7.28217 14.028 7.22267 13.9945 7.1853L12.0352 5.0053C12.0256 4.99464 12.0203 4.98082 12.0203 4.96649V1.62119C12.0203 1.58912 11.9943 1.56313 11.9623 1.56313H9.75595C9.72388 1.56313 9.69789 1.58912 9.69789 1.62119V2.64224C9.69789 2.69397 9.63535 2.71987 9.59877 2.6833L7.41675 0.501281C7.39398 0.478504 7.35701 0.478622 7.33438 0.501545Z" stroke="#104580" stroke-width="0.746733" stroke-linecap="round"/>
</svg>
