<svg width="94" height="97" viewBox="0 0 94 97" fill="none" xmlns="http://www.w3.org/2000/svg">
<circle cx="46.6005" cy="48" r="33.1303" fill="#E30D17"/>
<circle cx="46.6785" cy="48.6428" r="35.8215" stroke="#F3B4B7" stroke-width="9"/>
<path d="M90 48.4999C90 72.5859 70.7057 92.034 47 92.034C23.2942 92.034 4 72.5859 4 48.4999C4 24.414 23.2942 4.96582 47 4.96582C70.7057 4.96582 90 24.414 90 48.4999Z" stroke="#F9D8DA" stroke-width="8"/>
<path d="M23.5409 60.158L47.2323 26.1463C47.2658 26.0981 47.3373 26.0988 47.3699 26.1476L70.1136 60.1593C70.1507 60.2146 70.111 60.2889 70.0444 60.2889H23.6092C23.5419 60.2889 23.5024 60.2132 23.5409 60.158Z" stroke="#FEFEFE" stroke-width="2.74048" stroke-linecap="round"/>
<path d="M46.8247 37.4604V47.9613" stroke="#FEFEFE" stroke-width="2.74048" stroke-linecap="round"/>
<mask id="path-6-inside-1_650_479" fill="white">
<ellipse cx="46.8251" cy="52.5273" rx="1.43111" ry="1.36967"/>
</mask>
<ellipse cx="46.8251" cy="52.5273" rx="1.43111" ry="1.36967" fill="white"/>
<path d="M45.5158 52.5273C45.5158 51.6581 46.2166 51.1565 46.8251 51.1565V56.6374C49.0145 56.6374 50.9967 54.9093 50.9967 52.5273H45.5158ZM46.8251 51.1565C47.4337 51.1565 48.1345 51.6581 48.1345 52.5273H42.6536C42.6536 54.9093 44.6358 56.6374 46.8251 56.6374V51.1565ZM48.1345 52.5273C48.1345 53.3964 47.4337 53.8981 46.8251 53.8981V48.4171C44.6358 48.4171 42.6536 50.1452 42.6536 52.5273H48.1345ZM46.8251 53.8981C46.2166 53.8981 45.5158 53.3964 45.5158 52.5273H50.9967C50.9967 50.1452 49.0145 48.4171 46.8251 48.4171V53.8981Z" fill="#FEFEFE" mask="url(#path-6-inside-1_650_479)"/>
</svg>
