<svg width="81" height="81" viewBox="0 0 81 81" fill="none" xmlns="http://www.w3.org/2000/svg">
<path d="M81 40.5C81 62.8675 62.8675 81 40.5 81C18.1325 81 0 62.8675 0 40.5C0 18.1325 18.1325 0 40.5 0C62.8675 0 81 18.1325 81 40.5ZM4.455 40.5C4.455 60.4071 20.5929 76.545 40.5 76.545C60.4071 76.545 76.545 60.4071 76.545 40.5C76.545 20.5929 60.4071 4.455 40.5 4.455C20.5929 4.455 4.455 20.5929 4.455 40.5Z" fill="#D9D9D9"/>
<path d="M2.24535 39.3312C1.01571 39.2936 0.0429853 38.2654 0.148094 37.0397C0.542445 32.441 1.72054 27.9378 3.63661 23.7268C5.86059 18.839 9.03437 14.4424 12.9733 10.7926C16.9122 7.14278 21.5377 4.31276 26.5805 2.46716C30.9251 0.877072 35.5049 0.0450547 40.1202 0.00177834C41.3504 -0.00975635 42.3016 1.03839 42.2455 2.26733V2.26733C42.1894 3.49626 41.1471 4.43982 39.917 4.45971C35.8923 4.52481 31.9015 5.26373 28.1116 6.65077C23.6235 8.29336 19.5069 10.8121 16.0012 14.0604C12.4956 17.3087 9.67093 21.2217 7.69159 25.5718C6.02019 29.2452 4.97973 33.1682 4.60857 37.1763C4.49513 38.4012 3.47499 39.3688 2.24535 39.3312V39.3312Z" fill="#104580"/>
</svg>
