<svg width="81" height="81" viewBox="0 0 81 81" fill="none" xmlns="http://www.w3.org/2000/svg">
<path d="M81 40.5C81 62.8675 62.8675 81 40.5 81C18.1325 81 0 62.8675 0 40.5C0 18.1325 18.1325 0 40.5 0C62.8675 0 81 18.1325 81 40.5ZM4.455 40.5C4.455 60.4071 20.5929 76.545 40.5 76.545C60.4071 76.545 76.545 60.4071 76.545 40.5C76.545 20.5929 60.4071 4.455 40.5 4.455C20.5929 4.455 4.455 20.5929 4.455 40.5Z" fill="#D9D9D9"/>
<path d="M39.6517 78.7631C39.6245 79.993 38.6044 80.9743 37.3778 80.8795C32.758 80.5223 28.2279 79.3744 23.9868 77.4806C19.0669 75.2837 14.6348 72.1271 10.9502 68.1958C7.26552 64.2645 4.40236 59.6375 2.52839 54.5857C0.654428 49.534 -0.192669 44.1591 0.0367185 38.7758C0.266106 33.3926 1.56737 28.1092 3.86428 23.2352C6.1612 18.3612 9.40759 13.9944 13.4133 10.3908C17.4191 6.78721 22.1036 4.01913 27.1926 2.2487C31.5793 0.722556 36.1906 -0.0357988 40.8242 0.00129509C42.0543 0.0111433 42.9872 1.07567 42.9098 2.30344V2.30344C42.8323 3.53121 41.7737 4.45651 40.5435 4.45503C36.5022 4.45014 32.4833 5.12498 28.6564 6.45635C24.1272 8.03203 19.958 10.4956 16.3929 13.7028C12.8278 16.9101 9.93847 20.7964 7.89421 25.1343C5.84996 29.4722 4.69184 34.1744 4.48768 38.9655C4.28353 43.7566 5.03744 48.5402 6.70527 53.0363C8.3731 57.5323 10.9213 61.6504 14.2007 65.1493C17.48 68.6481 21.4246 71.4575 25.8033 73.4127C29.5031 75.0648 33.45 76.0791 37.4771 76.418C38.703 76.5212 39.679 77.5332 39.6517 78.7631V78.7631Z" fill="#104580"/>
</svg>
