<svg width="81" height="81" viewBox="0 0 81 81" fill="none" xmlns="http://www.w3.org/2000/svg">
<path d="M81 40.5C81 62.8675 62.8675 81 40.5 81C18.1325 81 0 62.8675 0 40.5C0 18.1325 18.1325 0 40.5 0C62.8675 0 81 18.1325 81 40.5ZM4.455 40.5C4.455 60.4071 20.5929 76.545 40.5 76.545C60.4071 76.545 76.545 60.4071 76.545 40.5C76.545 20.5929 60.4071 4.455 40.5 4.455C20.5929 4.455 4.455 20.5929 4.455 40.5Z" fill="#D9D9D9"/>
<path d="M78.6914 38.0102C79.919 37.9302 80.9855 38.8608 80.9979 40.091C81.0697 47.1846 79.2764 54.187 75.7798 60.3893C71.9179 67.2396 66.1452 72.8174 59.1663 76.4419C52.1875 80.0663 44.3044 81.5806 36.4793 80.7999C28.6542 80.0192 21.2257 76.9773 15.1005 72.0455C8.97531 67.1136 4.4184 60.5052 1.98603 53.0269C-0.446332 45.5487 -0.648931 37.524 1.40297 29.9325C3.45487 22.341 7.6725 15.5111 13.541 10.2764C18.8544 5.53699 25.313 2.29091 32.2585 0.847395C33.463 0.597064 34.5998 1.44041 34.7835 2.65682V2.65682C34.9673 3.87324 34.128 5.00136 32.9253 5.25987C26.8349 6.56892 21.1742 9.43752 16.5065 13.601C11.2835 18.2599 7.52983 24.3385 5.70364 31.0949C3.87745 37.8514 4.05777 44.9933 6.22257 51.649C8.38738 58.3047 12.443 64.1861 17.8945 68.5755C23.3459 72.9648 29.9573 75.6721 36.9216 76.3669C43.8859 77.0618 50.9018 75.714 57.113 72.4883C63.3242 69.2625 68.4619 64.2983 71.899 58.2015C74.9707 52.7529 76.5654 46.6105 76.5448 40.3811C76.5407 39.1509 77.4638 38.0902 78.6914 38.0102V38.0102Z" fill="#104580"/>
</svg>
