<svg width="81" height="81" viewBox="0 0 81 81" fill="none" xmlns="http://www.w3.org/2000/svg">
<path d="M81 40.5C81 62.8675 62.8675 81 40.5 81C18.1325 81 0 62.8675 0 40.5C0 18.1325 18.1325 0 40.5 0C62.8675 0 81 18.1325 81 40.5ZM4.455 40.5C4.455 60.4071 20.5929 76.545 40.5 76.545C60.4071 76.545 76.545 60.4071 76.545 40.5C76.545 20.5929 60.4071 4.455 40.5 4.455C20.5929 4.455 4.455 20.5929 4.455 40.5Z" fill="#D9D9D9"/>
<path d="M81 40.5C81 62.8675 62.8675 81 40.5 81C18.1325 81 0 62.8675 0 40.5C0 18.1325 18.1325 0 40.5 0C62.8675 0 81 18.1325 81 40.5ZM4.455 40.5C4.455 60.4071 20.5929 76.545 40.5 76.545C60.4071 76.545 76.545 60.4071 76.545 40.5C76.545 20.5929 60.4071 4.455 40.5 4.455C20.5929 4.455 4.455 20.5929 4.455 40.5Z" fill="#104580"/>
</svg>
